<svg xmlns="http://www.w3.org/2000/svg" width="192" height="192" viewBox="0 0 24 24">
    <defs>
        <linearGradient id="gold-gradient-app" x1="50%" y1="0%" x2="50%" y2="100%">
            <stop offset="0%" stopColor="#FFD700" />
            <stop offset="50%" stopColor="#FACC15" />
            <stop offset="100%" stopColor="#E6A100" />
        </linearGradient>
    </defs>
    <rect width="24" height="24" rx="4" fill="#1c1917" />
    <g transform="scale(0.85) translate(1.8, 1.8)">
        <path fill="url(#gold-gradient-app)" stroke="#854D0E" stroke-width="0.5" d="M4,21 H20 V19 H4 Z" />
        <path fill="url(#gold-gradient-app)" stroke="#854D0E" stroke-width="0.5" d="M6,19 H18 V17 H6 Z" />
        <path fill="url(#gold-gradient-app)" stroke="#854D0E" stroke-width="0.5" d="M12,17 C15,17 16,15 16,12 C16,9 15,7 12,7 C9,7 8,9 8,12 C8,15 9,17 12,17 Z" />
        <path fill="url(#gold-gradient-app)" stroke="#854D0E" stroke-width="0.5" d="M7,7 H17 V6 H7 Z" />
        <path fill="url(#gold-gradient-app)" stroke="#854D0E" stroke-width="0.5" d="M9,6 C9,4 10,2.5 12,2.5 C14,2.5 15,4 15,6 H9 Z" />
        <rect fill="url(#gold-gradient-app)" stroke="#854D0E" stroke-width="0.3" x="11" y="0.5" width="2" height="3.5" rx="0.5" />
        <rect fill="url(#gold-gradient-app)" stroke="#854D0E" stroke-width="0.3" x="10" y="1.5" width="4" height="1.5" rx="0.5" />
    </g>
</svg>